<svg height="590.672" viewBox="0 0 632.659 590.672" width="632.659" xmlns="http://www.w3.org/2000/svg"><ellipse cx="316.33" cy="408.039" fill="#f0f0f0" rx="316.33" ry="182.633"/><ellipse cx="250.868" cy="483.464" fill="#e0e0e0" rx="109.083" ry="62.979"/><path d="m435.991 368.628-12.791-7.385s-3.134-27.394-1.049-48.609c2.928-29.811 22.182-65.681 45.15-57.257s-10.531 38.784-17.987 64.07-13.323 49.181-13.323 49.181z" fill="#5ada86" transform="translate(125.083 36.044)"/><path d="m435.991 368.628-12.791-7.385s-3.134-27.394-1.049-48.609c2.928-29.811 22.182-65.681 45.15-57.257s-10.531 38.784-17.987 64.07-13.323 49.181-13.323 49.181z" opacity=".15" transform="translate(125.083 36.044)"/><path d="m427.492 363.126h.027a.774.774 0 0 0 .748-.8c-2.246-66.24 30.728-99.561 31.061-99.888a.774.774 0 0 0 -1.088-1.1c-.338.334-33.791 34.133-31.523 101.046a.775.775 0 0 0 .775.742z" fill="#fff" transform="translate(126.855 38.438)"/><path d="m440.613 363.318-9.1-5.255s-1.548-18.8 7.668-41.633c8.023-19.88 27.931-36.373 37.944-32.907s9.764 10.566 4.882 18.014-34.582 25.199-41.394 61.781z" fill="#4dba72" transform="translate(128.503 45.96)"/><path d="m434.888 359.889a.774.774 0 0 0 .771-.777c-.18-41.882 39.145-70.189 39.543-70.47a.774.774 0 0 0 -.9-1.263c-.4.285-40.381 29.062-40.2 71.741a.774.774 0 0 0 .786.769z" fill="#fff" transform="translate(129.428 47.391)"/><path d="m89.224 356.176 11.81-7.97s5.2-30.944.369-58.125c-6.791-38.215-33.146-50.932-42.551-46.939s-11.414 15.392 6.132 37.209c10.354 12.871 23.878 40.249 24.24 75.825z" fill="#5ada86" transform="translate(-1.612 32.038)"/><path d="m89.224 356.176 11.81-7.97s5.2-30.944.369-58.125c-6.791-38.215-33.146-50.932-42.551-46.939s-11.414 15.392 6.132 37.209c10.354 12.871 23.878 40.249 24.24 75.825z" opacity=".15" transform="translate(-1.612 32.038)"/><path d="m89.976 339.48a.862.862 0 0 1 -.867-.957c4.266-35.982-10.924-75.02-27.445-90.552a.856.856 0 1 1 1.174-1.246c16.821 15.816 32.3 55.488 27.971 92a.859.859 0 0 1 -.833.755z" fill="#fff" transform="translate(1.693 33.427)"/><path d="m63.486 368.744c-1.874 1.125-7.354-2.939-8.87-3.915a18.1 18.1 0 0 1 -6.151-6.791 16.96 16.96 0 0 1 -1.7-10.155 40.2 40.2 0 0 1 1.183-5.439l1.41-5.286a13.319 13.319 0 0 0 .669-5.316c-.529-3.586-3.769-6.042-6.712-8.16-3.255-2.34-6.656-5.446-6.722-9.775-.051-3.339 1.619-6.475 3.637-9.134s4.43-5.023 6.246-7.827a10.626 10.626 0 0 0 2.048-6.767 11.093 11.093 0 0 0 -1.55-4.179c-1.583-2.789-3.648-5.331-4.761-8.338s-1.035-6.775 1.286-8.987c1.905-1.815 4.783-2.119 7.41-2a17.1 17.1 0 0 1 6.973 2.3c6.945 3.687 11.024 11.749 18.371 14.548 2.834 1.08 5.92 1.269 8.866 1.987s5.964 2.158 7.374 4.843c2.779 5.294-2.06 11.978-.068 17.616 1.762 4.99 6.679 6.817 9.506 11.289a10.735 10.735 0 0 1 1.409 6.55 31.555 31.555 0 0 1 -2.557 11.162 98.923 98.923 0 0 1 -5.869 10.566s-31.143 21.035-31.428 21.208z" fill="#5ada86" transform="translate(-6.809 40.339)"/><path d="m77.533 355.892h-.023a.859.859 0 0 1 -.849-.874c.757-33.993-15.97-71.184-27.82-81.853a.856.856 0 0 1 1.145-1.272c12.087 10.884 29.153 48.691 28.386 83.162a.858.858 0 0 1 -.839.837z" fill="#fff" transform="translate(-2.706 42.057)"/><path d="m72.063 304.893a.817.817 0 0 1 -.252-.034c-10.978-3.162-24.59-3.5-24.726-3.5a.858.858 0 0 1 -.838-.875.832.832 0 0 1 .875-.838c.138 0 13.967.34 25.162 3.566a.856.856 0 0 1 -.222 1.678z" fill="#fff" transform="translate(-3.499 51.644)"/><path d="m303.2 388.071-5.094-2.945a6.43 6.43 0 0 1 -2.906-5.037v-211.499a6.423 6.423 0 0 1 2.907-5.035l141.448-81.664a6.428 6.428 0 0 1 5.814 0l5.1 2.941a6.423 6.423 0 0 1 2.907 5.035v211.5a6.423 6.423 0 0 1 -2.907 5.035l-141.451 81.67a6.421 6.421 0 0 1 -5.818-.001z" fill="#455a64" transform="translate(81.82 -23.222)"/><path d="m453.131 89.4c-.2-1.5-1.423-2.054-2.887-1.208l-141.444 81.672a6.017 6.017 0 0 0 -2.054 2.162l-10.916-6.3a5.95 5.95 0 0 1 2.054-2.175l141.457-81.662a6.428 6.428 0 0 1 5.814 0l5.089 2.941a6.487 6.487 0 0 1 2.887 4.57z" fill="#455a64" transform="translate(82.037 -23.222)"/><path d="m308.522 366.729a6.484 6.484 0 0 1 -5.317-.228l-5.1-2.954a6.44 6.44 0 0 1 -2.9-5.035v-211.5a5.948 5.948 0 0 1 .846-2.86l10.916 6.3a5.874 5.874 0 0 0 -.859 2.873v211.5c-.008 1.663 1.044 2.428 2.414 1.904z" fill="#263238" transform="translate(81.821 -1.646)"/><path d="m303.323 173.213v211.5c0 1.854 1.3 2.6 2.907 1.678l141.451-81.67a6.423 6.423 0 0 0 2.907-5.035v-211.503c0-1.854-1.3-2.6-2.907-1.678l-141.451 81.672a6.427 6.427 0 0 0 -2.907 5.036z" fill="#37474f" transform="translate(84.604 -21.539)"/><path d="m281.8 222.811c-1.826-1.088-10.3-5.908-10.742-6.163a2.71 2.71 0 0 1 -.577-4.149l33.447-35.877 10.9 6.257-33.435 35.891a2.7 2.7 0 0 0 .407 4.041z" fill="#455a64" transform="translate(73.099 9.482)"/><path d="m312.045 181.286-33.44 35.881a2.69 2.69 0 0 0 2.189 4.514l31.252-2.574z" fill="#37474f" transform="translate(75.883 11.08)"/><path d="m365.78 134.243c16.486-9.518 29.85-1.8 29.85 17.234s-13.364 42.183-29.85 51.7-29.85 1.8-29.85-17.234 13.37-42.183 29.85-51.7z" fill="#4dba72" transform="translate(95.779 -6.44)"/><path d="m360.477 144.7c5.348-3.088 9.685-.585 9.685 5.59s-4.336 13.686-9.685 16.773-9.684.585-9.684-5.591 4.336-13.688 9.684-16.772z" fill="#fff" transform="translate(100.873 -1.913)"/><path d="m381.743 171.783c0-10.147-7.124-14.26-15.91-9.186l-5.493 3.172c-8.785 5.073-15.91 17.411-15.91 27.556v2.767a16.366 16.366 0 0 0 5.129.791c4.008.008 8.52-1.312 13.309-4.076 7.162-4.136 13.732-10.846 18.874-18.67z" fill="#fff" transform="translate(98.692 3.93)"/><path d="m344.821 260.4 37.819-21.835c1.606-.926 2.907-.176 2.907 1.678v12.18a6.423 6.423 0 0 1 -2.907 5.035l-37.819 21.842c-1.606.926-2.907.176-2.907-1.678v-12.182a6.423 6.423 0 0 1 2.907-5.04z" fill="#4dba72" transform="translate(97.83 30.576)"/><g fill="#fafafa"><path d="m331.184 245.615 74.836-43.205c1.927-1.112 3.488-.211 3.488 2.014v4.533a7.709 7.709 0 0 1 -3.488 6.043l-74.835 43.2c-1.927 1.112-3.488.211-3.488-2.014v-4.533a7.708 7.708 0 0 1 3.487-6.038z" transform="translate(92.957 18.156)"/><path d="m337.763 211.31q1.527-.882 2.374-.262t.846 2.758a7.975 7.975 0 0 1 -.846 3.754 6.065 6.065 0 0 1 -2.374 2.5l-2.021 1.165v4.336a.989.989 0 0 1 -.1.427.63.63 0 0 1 -.242.294l-1.022.591a.183.183 0 0 1 -.242-.016.418.418 0 0 1 -.1-.311v-12.56a1 1 0 0 1 .1-.428.643.643 0 0 1 .242-.294zm-2.021 7.484 1.956-1.131a3.24 3.24 0 0 0 1.149-1.1 3.29 3.29 0 0 0 .428-1.772q0-1.09-.428-1.259a1.376 1.376 0 0 0 -1.149.247l-1.956 1.129z" transform="translate(95.13 21.192)"/><path d="m344.674 207.387c.134-.078.236-.082.3-.011a.928.928 0 0 1 .177.395l3.1 10.5a.567.567 0 0 1 .012.129.992.992 0 0 1 -.1.427.627.627 0 0 1 -.24.294l-.909.525c-.168.1-.287.11-.354.039a.572.572 0 0 1 -.14-.242l-.542-1.844-3.991 2.305-.542 2.471a2.139 2.139 0 0 1 -.138.4.827.827 0 0 1 -.355.369l-.909.525a.184.184 0 0 1 -.24-.019.407.407 0 0 1 -.1-.309.681.681 0 0 1 .013-.144l3.094-14.073a2.8 2.8 0 0 1 .177-.6.727.727 0 0 1 .3-.34zm.694 8.135-1.388-4.738-1.388 6.342z" transform="translate(97.071 20.004)"/><path d="m350.487 203.794a3.3 3.3 0 0 1 1.489-.509 1.821 1.821 0 0 1 1.074.254 1.738 1.738 0 0 1 .65.781 2.971 2.971 0 0 1 .247 1.053.848.848 0 0 1 -.094.434.7.7 0 0 1 -.247.287l-.885.51c-.142.085-.248.1-.321.06a.563.563 0 0 1 -.2-.226 1 1 0 0 0 -.573-.516 1.512 1.512 0 0 0 -1.144.3 3.523 3.523 0 0 0 -1.143 1.078 3.061 3.061 0 0 0 -.348.7 2.229 2.229 0 0 0 -.126.734 1.384 1.384 0 0 0 .12.661.514.514 0 0 0 .4.252 2.284 2.284 0 0 0 .752-.055c.311-.063.7-.149 1.161-.262a4.731 4.731 0 0 1 1.308-.16 1.509 1.509 0 0 1 .9.3 1.64 1.64 0 0 1 .518.8 4.322 4.322 0 0 1 .171 1.32 6.506 6.506 0 0 1 -.252 1.77 7.414 7.414 0 0 1 -.72 1.7 7.816 7.816 0 0 1 -1.151 1.509 6.956 6.956 0 0 1 -1.528 1.194 4.066 4.066 0 0 1 -1.351.517 2.031 2.031 0 0 1 -1.143-.1 1.671 1.671 0 0 1 -.8-.733 3 3 0 0 1 -.34-1.359.836.836 0 0 1 .094-.434.684.684 0 0 1 .246-.287l.885-.51a.379.379 0 0 1 .328-.074.418.418 0 0 1 .191.239 2.084 2.084 0 0 0 .215.383.652.652 0 0 0 .34.25 1.122 1.122 0 0 0 .537.012 2.666 2.666 0 0 0 .8-.338 5.1 5.1 0 0 0 .733-.51 3.719 3.719 0 0 0 .619-.649 3.533 3.533 0 0 0 .428-.753 2.2 2.2 0 0 0 .164-.845.817.817 0 0 0 -.176-.6.705.705 0 0 0 -.537-.156 4.479 4.479 0 0 0 -.89.144c-.353.086-.761.175-1.225.259a3.731 3.731 0 0 1 -1.105.085 1.3 1.3 0 0 1 -.783-.336 1.755 1.755 0 0 1 -.461-.832 5.465 5.465 0 0 1 -.15-1.421 6.385 6.385 0 0 1 .252-1.758 7.506 7.506 0 0 1 .7-1.665 7.361 7.361 0 0 1 1.054-1.434 5.73 5.73 0 0 1 1.317-1.064z" transform="translate(99.542 18.619)"/><path d="m357.051 200.006a3.325 3.325 0 0 1 1.489-.51 1.836 1.836 0 0 1 1.076.254 1.743 1.743 0 0 1 .649.781 2.956 2.956 0 0 1 .247 1.053.83.83 0 0 1 -.094.434.678.678 0 0 1 -.247.287l-.885.512c-.144.083-.25.1-.321.06a.576.576 0 0 1 -.195-.227 1.012 1.012 0 0 0 -.575-.516 1.514 1.514 0 0 0 -1.144.3 3.561 3.561 0 0 0 -1.143 1.078 3.074 3.074 0 0 0 -.348.7 2.219 2.219 0 0 0 -.126.734 1.378 1.378 0 0 0 .119.659.511.511 0 0 0 .4.254 2.321 2.321 0 0 0 .752-.055c.311-.063.7-.149 1.161-.262a4.8 4.8 0 0 1 1.308-.161 1.506 1.506 0 0 1 .9.3 1.637 1.637 0 0 1 .518.8 4.332 4.332 0 0 1 .171 1.321 6.521 6.521 0 0 1 -.252 1.77 7.379 7.379 0 0 1 -.72 1.7 7.764 7.764 0 0 1 -1.149 1.511 6.937 6.937 0 0 1 -1.527 1.192 4.118 4.118 0 0 1 -1.352.518 2.034 2.034 0 0 1 -1.143-.1 1.65 1.65 0 0 1 -.8-.733 2.987 2.987 0 0 1 -.341-1.359.829.829 0 0 1 .1-.432.655.655 0 0 1 .246-.289l.884-.51c.142-.083.252-.107.328-.073a.4.4 0 0 1 .191.239 2.27 2.27 0 0 0 .215.383.67.67 0 0 0 .341.25 1.117 1.117 0 0 0 .536.012 2.712 2.712 0 0 0 .8-.337 5.107 5.107 0 0 0 .732-.512 3.66 3.66 0 0 0 .619-.647 3.569 3.569 0 0 0 .43-.753 2.183 2.183 0 0 0 .163-.843.819.819 0 0 0 -.176-.6.711.711 0 0 0 -.537-.156 4.6 4.6 0 0 0 -.89.144q-.53.131-1.225.26a3.773 3.773 0 0 1 -1.105.085 1.3 1.3 0 0 1 -.781-.336 1.743 1.743 0 0 1 -.462-.834 5.454 5.454 0 0 1 -.15-1.419 6.4 6.4 0 0 1 .252-1.759 7.532 7.532 0 0 1 .7-1.665 7.405 7.405 0 0 1 1.054-1.434 5.668 5.668 0 0 1 1.307-1.069z" transform="translate(101.792 17.32)"/><path d="m364.607 203.587-1.086 6.44a3.149 3.149 0 0 1 -.158.567.666.666 0 0 1 -.283.349l-1.025.591c-.126.073-.226.07-.3-.015a.737.737 0 0 1 -.144-.391l-1.611-11.334a1.165 1.165 0 0 1 -.012-.148 1 1 0 0 1 .1-.428.627.627 0 0 1 .24-.294l.933-.54a.261.261 0 0 1 .242-.021c.075.034.126.14.15.321l1.061 7.631.935-5.731a2.647 2.647 0 0 1 .121-.42.717.717 0 0 1 .321-.4l1.035-.6q.228-.131.322.028a.961.961 0 0 1 .119.279l.935 4.653 1.061-8.855a1.22 1.22 0 0 1 .152-.5.711.711 0 0 1 .24-.254l.933-.54a.184.184 0 0 1 .24.019.414.414 0 0 1 .1.31 1.487 1.487 0 0 1 -.012.161l-1.617 13.2a2.109 2.109 0 0 1 -.144.56.739.739 0 0 1 -.3.357l-1.023.589c-.128.074-.222.067-.285-.02a1.143 1.143 0 0 1 -.159-.385z" transform="translate(104.023 15.419)"/><path d="m368.117 198.911a12.825 12.825 0 0 1 .271-2.209 9.529 9.529 0 0 1 .689-2.069 8.11 8.11 0 0 1 1.136-1.783 6.052 6.052 0 0 1 1.618-1.352 3.181 3.181 0 0 1 1.6-.518 1.594 1.594 0 0 1 1.137.473 2.962 2.962 0 0 1 .694 1.27 7.733 7.733 0 0 1 .279 1.9q.012.365.019.806t.007.92q0 .477-.007.926c0 .3-.011.577-.019.827a12.925 12.925 0 0 1 -.271 2.209 9.529 9.529 0 0 1 -.689 2.069 7.9 7.9 0 0 1 -1.143 1.778 6.173 6.173 0 0 1 -1.61 1.337 3.249 3.249 0 0 1 -1.618.526 1.608 1.608 0 0 1 -1.136-.463 2.806 2.806 0 0 1 -.689-1.274 8.048 8.048 0 0 1 -.271-1.893c-.008-.242-.016-.509-.019-.807s-.007-.6-.007-.918 0-.627.007-.928.013-.575.022-.827zm5.721-3.206a2.5 2.5 0 0 0 -.588-1.829c-.359-.3-.831-.289-1.421.052a3.644 3.644 0 0 0 -1.422 1.59 6.023 6.023 0 0 0 -.588 2.505q-.026.753-.027 1.658c0 .6.009 1.144.027 1.627a2.445 2.445 0 0 0 .588 1.818c.358.3.831.278 1.422-.062a3.646 3.646 0 0 0 1.421-1.578 5.987 5.987 0 0 0 .588-2.5q.026-.753.026-1.657c-.001-.598-.009-1.139-.026-1.624z" transform="translate(106.801 14.403)"/><path d="m378.951 187.514q1.577-.91 2.4-.256a3.316 3.316 0 0 1 .82 2.657 8.229 8.229 0 0 1 -.422 2.664 6.7 6.7 0 0 1 -1.245 2.206l1.743 3.8a.511.511 0 0 1 .038.193.82.82 0 0 1 -.083.349.522.522 0 0 1 -.2.239l-1.074.619c-.168.1-.293.107-.372.031a.71.71 0 0 1 -.171-.242l-1.653-3.577-1.68.971v4.53a.983.983 0 0 1 -.1.426.651.651 0 0 1 -.24.3l-1.023.589a.184.184 0 0 1 -.24-.019.405.405 0 0 1 -.1-.309v-12.56a.965.965 0 0 1 .1-.427.65.65 0 0 1 .24-.3zm-1.895 7.218 1.83-1.057a3.411 3.411 0 0 0 1.149-1.053 3.043 3.043 0 0 0 .428-1.725q0-1.088-.428-1.21a1.581 1.581 0 0 0 -1.149.3l-1.83 1.057z" transform="translate(109.289 13.033)"/><path d="m385.583 183.672a3.581 3.581 0 0 1 1.622-.559 1.557 1.557 0 0 1 1.151.418 2.788 2.788 0 0 1 .706 1.282 8.846 8.846 0 0 1 .3 2.045q.05 1.408 0 2.877a13.863 13.863 0 0 1 -.3 2.387 9.767 9.767 0 0 1 -.7 2.1 7.42 7.42 0 0 1 -1.132 1.731 6.209 6.209 0 0 1 -1.584 1.294l-3.182 1.837a.182.182 0 0 1 -.24-.017.412.412 0 0 1 -.1-.31v-12.56a.993.993 0 0 1 .1-.427.646.646 0 0 1 .24-.3zm2.07 4.17a4.62 4.62 0 0 0 -.157-1.065 1.553 1.553 0 0 0 -.392-.706.9.9 0 0 0 -.649-.247 1.978 1.978 0 0 0 -.935.317l-1.692.976v8.749l1.755-1.012a3.4 3.4 0 0 0 .9-.743 4.322 4.322 0 0 0 .631-.977 5.326 5.326 0 0 0 .385-1.155 7.471 7.471 0 0 0 .157-1.257c.03-.981.03-1.939-.002-2.88z" transform="translate(111.61 11.706)"/></g><path d="m253.17 38.524a24.912 24.912 0 0 1 6.636 2.491 19.136 19.136 0 0 1 5.278 4.193 15.094 15.094 0 0 1 3.111 5.638 13.352 13.352 0 0 1 .138 6.825 13.6 13.6 0 0 1 -2.088 5 16.27 16.27 0 0 1 -3.276 3.437 26.52 26.52 0 0 1 -3.9 2.515q-2.048 1.08-3.871 2.048a21.823 21.823 0 0 0 -3.3 2.138 6.268 6.268 0 0 0 -2.065 2.765 2.981 2.981 0 0 1 -.988 1.272 1.755 1.755 0 0 1 -1.481.3l-5.692-1.261a2.1 2.1 0 0 1 -1.327-.922 1.7 1.7 0 0 1 -.247-1.545 13.338 13.338 0 0 1 2.371-4.857 18.735 18.735 0 0 1 3.5-3.389 27.051 27.051 0 0 1 4-2.452q2.073-1.035 3.863-2.013a17.341 17.341 0 0 0 3.049-2.073 4.836 4.836 0 0 0 1.613-2.668 5.787 5.787 0 0 0 -1.36-5.211 10.458 10.458 0 0 0 -5.959-3.244q-6.364-1.41-10.77 4.293a4.338 4.338 0 0 1 -1.058 1.061 1.959 1.959 0 0 1 -1.48.1l-6.067-1.34a1.692 1.692 0 0 1 -1.061-.706 1.593 1.593 0 0 1 -.222-1.306 11.865 11.865 0 0 1 2.8-5 18.75 18.75 0 0 1 5.212-4.031 22.678 22.678 0 0 1 6.871-2.282 20.017 20.017 0 0 1 7.77.224zm-6.422 43.2a2.1 2.1 0 0 1 1.572 2.469l-1.46 6.589a2.1 2.1 0 0 1 -2.468 1.575l-6.44-1.426a2.1 2.1 0 0 1 -1.576-2.471l1.46-6.59a2.095 2.095 0 0 1 2.471-1.574z" fill="#4dba72" transform="translate(59.638 -38.019)"/><path d="m255.713 85.364a17.137 17.137 0 0 1 4.893-.1 13.19 13.19 0 0 1 4.456 1.335 10.471 10.471 0 0 1 3.437 2.82 9.22 9.22 0 0 1 1.837 4.34 9.409 9.409 0 0 1 -.06 3.739 11.245 11.245 0 0 1 -1.219 3.044 18.149 18.149 0 0 1 -1.854 2.609q-1.035 1.216-1.956 2.3a15.074 15.074 0 0 0 -1.57 2.215 4.3 4.3 0 0 0 -.616 2.3 2.081 2.081 0 0 1 -.307 1.07 1.214 1.214 0 0 1 -.871.572l-3.972.649a1.463 1.463 0 0 1 -1.089-.252 1.172 1.172 0 0 1 -.553-.928 9.211 9.211 0 0 1 .278-3.721 12.853 12.853 0 0 1 1.375-3.068 18.728 18.728 0 0 1 1.936-2.6q1.065-1.192 1.962-2.28a12.019 12.019 0 0 0 1.425-2.108 3.347 3.347 0 0 0 .352-2.124 4 4 0 0 0 -2.207-2.993 7.212 7.212 0 0 0 -4.651-.555q-4.441.725-5.806 5.51a2.964 2.964 0 0 1 -.408.951 1.348 1.348 0 0 1 -.92.446l-4.231.693a1.176 1.176 0 0 1 -.863-.181 1.1 1.1 0 0 1 -.477-.781 8.172 8.172 0 0 1 .514-3.919 12.873 12.873 0 0 1 2.309-3.918 15.649 15.649 0 0 1 3.819-3.225 13.832 13.832 0 0 1 5.037-1.84zm6.939 29.337a1.445 1.445 0 0 1 1.642 1.179l.752 4.6a1.445 1.445 0 0 1 -1.18 1.641l-4.494.734a1.445 1.445 0 0 1 -1.642-1.178l-.752-4.6a1.447 1.447 0 0 1 1.179-1.642z" fill="#27debf" transform="translate(64.263 -21.872)"/><path d="m255.713 85.364a17.137 17.137 0 0 1 4.893-.1 13.19 13.19 0 0 1 4.456 1.335 10.471 10.471 0 0 1 3.437 2.82 9.22 9.22 0 0 1 1.837 4.34 9.409 9.409 0 0 1 -.06 3.739 11.245 11.245 0 0 1 -1.219 3.044 18.149 18.149 0 0 1 -1.854 2.609q-1.035 1.216-1.956 2.3a15.074 15.074 0 0 0 -1.57 2.215 4.3 4.3 0 0 0 -.616 2.3 2.081 2.081 0 0 1 -.307 1.07 1.214 1.214 0 0 1 -.871.572l-3.972.649a1.463 1.463 0 0 1 -1.089-.252 1.172 1.172 0 0 1 -.553-.928 9.211 9.211 0 0 1 .278-3.721 12.853 12.853 0 0 1 1.375-3.068 18.728 18.728 0 0 1 1.936-2.6q1.065-1.192 1.962-2.28a12.019 12.019 0 0 0 1.425-2.108 3.347 3.347 0 0 0 .352-2.124 4 4 0 0 0 -2.207-2.993 7.212 7.212 0 0 0 -4.651-.555q-4.441.725-5.806 5.51a2.964 2.964 0 0 1 -.408.951 1.348 1.348 0 0 1 -.92.446l-4.231.693a1.176 1.176 0 0 1 -.863-.181 1.1 1.1 0 0 1 -.477-.781 8.172 8.172 0 0 1 .514-3.919 12.873 12.873 0 0 1 2.309-3.918 15.649 15.649 0 0 1 3.819-3.225 13.832 13.832 0 0 1 5.037-1.84zm6.939 29.337a1.445 1.445 0 0 1 1.642 1.179l.752 4.6a1.445 1.445 0 0 1 -1.18 1.641l-4.494.734a1.445 1.445 0 0 1 -1.642-1.178l-.752-4.6a1.447 1.447 0 0 1 1.179-1.642z" fill="#4dba72" opacity=".6" transform="translate(64.263 -21.872)"/><path d="m283.611 99.283a1.712 1.712 0 0 1 .4 2.362l-3.2 4.5a1.715 1.715 0 0 1 -2.362.4l-4.4-3.126a1.711 1.711 0 0 1 -.4-2.36l3.2-4.5a1.712 1.712 0 0 1 2.36-.4zm18.6-30.5a20.356 20.356 0 0 1 4.205 3.989 15.61 15.61 0 0 1 2.64 4.839 12.368 12.368 0 0 1 .548 5.238 10.912 10.912 0 0 1 -2.07 5.187 11.13 11.13 0 0 1 -3.163 3.1 13.239 13.239 0 0 1 -3.562 1.547 21.819 21.819 0 0 1 -3.735.655q-1.889.159-3.57.309a17.775 17.775 0 0 0 -3.166.559 5.107 5.107 0 0 0 -2.436 1.425 2.441 2.441 0 0 1 -1.151.643 1.426 1.426 0 0 1 -1.21-.246l-3.887-2.763a1.728 1.728 0 0 1 -.706-1.117 1.4 1.4 0 0 1 .306-1.245 10.935 10.935 0 0 1 3.334-2.9 15.334 15.334 0 0 1 3.717-1.438 21.978 21.978 0 0 1 3.795-.573q1.889-.119 3.551-.286a14.227 14.227 0 0 0 2.959-.589 3.966 3.966 0 0 0 2.064-1.5 4.734 4.734 0 0 0 .635-4.358 8.547 8.547 0 0 0 -3.453-4.341q-4.348-3.09-9.484-.2a3.548 3.548 0 0 1 -1.136.463 1.606 1.606 0 0 1 -1.145-.391l-4.142-2.945a1.387 1.387 0 0 1 -.575-.869 1.3 1.3 0 0 1 .248-1.054 9.688 9.688 0 0 1 3.7-2.876 15.3 15.3 0 0 1 5.212-1.375 18.49 18.49 0 0 1 5.9.465 16.35 16.35 0 0 1 5.779 2.652z" fill="#27debf" transform="translate(74.331 -28.562)"/><path d="m283.611 99.283a1.712 1.712 0 0 1 .4 2.362l-3.2 4.5a1.715 1.715 0 0 1 -2.362.4l-4.4-3.126a1.711 1.711 0 0 1 -.4-2.36l3.2-4.5a1.712 1.712 0 0 1 2.36-.4zm18.6-30.5a20.356 20.356 0 0 1 4.205 3.989 15.61 15.61 0 0 1 2.64 4.839 12.368 12.368 0 0 1 .548 5.238 10.912 10.912 0 0 1 -2.07 5.187 11.13 11.13 0 0 1 -3.163 3.1 13.239 13.239 0 0 1 -3.562 1.547 21.819 21.819 0 0 1 -3.735.655q-1.889.159-3.57.309a17.775 17.775 0 0 0 -3.166.559 5.107 5.107 0 0 0 -2.436 1.425 2.441 2.441 0 0 1 -1.151.643 1.426 1.426 0 0 1 -1.21-.246l-3.887-2.763a1.728 1.728 0 0 1 -.706-1.117 1.4 1.4 0 0 1 .306-1.245 10.935 10.935 0 0 1 3.334-2.9 15.334 15.334 0 0 1 3.717-1.438 21.978 21.978 0 0 1 3.795-.573q1.889-.119 3.551-.286a14.227 14.227 0 0 0 2.959-.589 3.966 3.966 0 0 0 2.064-1.5 4.734 4.734 0 0 0 .635-4.358 8.547 8.547 0 0 0 -3.453-4.341q-4.348-3.09-9.484-.2a3.548 3.548 0 0 1 -1.136.463 1.606 1.606 0 0 1 -1.145-.391l-4.142-2.945a1.387 1.387 0 0 1 -.575-.869 1.3 1.3 0 0 1 .248-1.054 9.688 9.688 0 0 1 3.7-2.876 15.3 15.3 0 0 1 5.212-1.375 18.49 18.49 0 0 1 5.9.465 16.35 16.35 0 0 1 5.779 2.652z" fill="#4dba72" opacity=".6" transform="translate(74.331 -28.562)"/><path d="m218.7 218.375h-47.7v-115.588a37.849 37.849 0 0 1 37.848-37.848h4.408a37.848 37.848 0 0 1 37.844 37.848v83.188a32.4 32.4 0 0 1 -32.4 32.4z" fill="#263238" transform="translate(39.255 -28.794)"/><path d="m168.415 386.44a88.921 88.921 0 0 0 -1.382 14.507c-.167 8.806-1.784 11.931-2 19.159-.244 8.258 1.182 11.349 4.533 15.989s12.146 8.854 15.863 1.007c3.762-7.939 3.239-12.984 2.05-21.086-1.229-8.374-1.384-13-2.1-19.387-.627-5.63-1.379-9.907-1.379-9.907z" fill="#263238" transform="translate(37.201 81.388)"/><path d="m193.566 343-29.008-.526c.431 19.365 3.509 40.859 4.011 59.027.094 3.42-.086 26.576 1.2 33.613 1.938 10.573 14.488 9.145 15.154 2.817s-.808-33.36-.768-36.148c-.11-11.652 5.351-31.321 8.215-52.238.143-1.023 1.063-5.539 1.196-6.545z" fill="#ffa8a7" transform="translate(37.047 66.322)"/><path d="m214.907 375.257s-1.145-.615-1.382.607c-.281 1.454-.7 4.451-1.3 6.838-.839 3.318-1.537 8.783-1.034 11.486s6.806 6.183 10.9 7.44a33.347 33.347 0 0 1 13.486 7.993c4.052 3.815 12.8 7.417 18.752 7.374 7.047-.051 11.96-2.347 14.281-6.12 2.425-3.941-2.116-4.231-10.17-9.455-1.829-1.187-3.91-2.528-6.252-4.058-12.758-8.334-17.43-12.8-21.039-21.136z" fill="#263238" transform="translate(52.969 77.503)"/><path d="m232.119 385.888c-.215-6 3.9-56.859 3.9-56.859l-27.548 12.558c5.9 35.21 7.157 43.513 7.261 49.275a5.049 5.049 0 0 0 -.156 1.476c.026 6.841 7.745 10.53 13.767 15.091a112.26 112.26 0 0 0 16.287 10.633c4.376 2.2 13.261 2.4 14.362-.416-7.329-5.6-17.987-13.971-23.816-20.362-2.786-3.054-3.843-5.401-4.057-11.396z" fill="#ffa8a7" transform="translate(52.095 61.713)"/><path d="m176.685 202.157c-10.575 23.226-10.575 41.186-8.827 70.82 1.6 27.183 4.16 51.113 4.16 51.113-.41 4.824-7.114 14.237-7.981 35.552-.811 19.929 1.372 45.261 1.372 45.261s15.049 8.341 26.178-.072c0 0 10.738-51.277 13.885-76.222 2.746-21.769 7.518-49.585 7.518-49.585l10.11 49.467s-3.846 12.2-4.745 21.486c-1.422 14.673 6.785 43.485 6.785 43.485s15.55 4.64 25.047-3.781c0 0 3.551-46.845 4.877-64.521 1.775-23.669-1.958-87.748-4.878-121.67z" fill="#455a64" transform="translate(36.807 18.232)"/><path d="m200.449 271.582 4.179-37.236s18.719-2.5 27.2-10.473c0 0-6.371 11.674-22.055 13.939l-6.041 34.649 6.829 48.589z" fill="#263238" transform="translate(49.347 25.674)"/><path d="m272.976 217.643a157.96 157.96 0 0 0 1.024-20.479c-.408-5.909-1.465-6.871-9.727-17.341-11.153-14.136-20.671-26.841-30.74-39.481-7.188-9.024-14.743-10.413-22.123-10-5.16.286 4.906 25.085 9.978 39.759l28.937 31.124a6.207 6.207 0 0 1 1.151 4.251l-1.776 26.5 8.666 11.592s13.118-11.322 14.61-25.925z" fill="#ffa8a7" transform="translate(52.613 -6.402)"/><path d="m197.365 131.125c-5.6.385-15.774 1.281-15.774 1.281-5.873 3.278-7.357 5.964-8.45 13.764-.465 3.318 2.24 12.172 4.563 24.75l4.408 23.328-.478 11.569c-2.288 7.059-7.464 15.833-12.023 28.766 22.418 12.511 41.22 12.975 58.271 10.786 13-1.669 19.883-4.816 22.176-7.923-.478-12.777-1.382-20.666-1.6-34.015-.093-5.607.244-11.264.462-17.717 8.724-7.166 8.823-19.083 4.064-26.786-11.055-17.9-21.8-29.165-28.922-28.588z" fill="#4dba72" transform="translate(38.779 -6.387)"/><path d="m197.365 131.125c-5.6.385-15.774 1.281-15.774 1.281-5.873 3.278-7.357 5.964-8.45 13.764-.465 3.318 2.24 12.172 4.563 24.75l4.408 23.328-.478 11.569c-2.288 7.059-7.464 15.833-12.023 28.766 22.418 12.511 39.885 13.078 56.936 10.889 13-1.669 21.217-4.92 23.511-8.027-.478-12.777-1.382-20.666-1.6-34.015-.093-5.607.244-11.264.462-17.717 8.724-7.166 8.823-19.083 4.064-26.786-11.055-17.9-21.8-29.165-28.922-28.588z" fill="#fff" opacity=".6" transform="translate(38.779 -6.387)"/><path d="m224.772 174.414s-10.24 7.946-21.925 3.8-13.391-14.359-13.391-14.359-1.241 13.359 13.5 17.914c14.225 4.398 21.816-7.355 21.816-7.355z" opacity=".1" transform="translate(45.571 5.107)"/><path d="m242.238 112c-.44 19.385-6.732 24.177-9.885 25.553s-9.239.537-15.144-.44v11.633s6.816 7.146 6.305 12.474-10.711 5.933-18.366.716a58.255 58.255 0 0 1 -11.319-10.219 4.133 4.133 0 0 1 -.976-2.676v-27.378s-3.236 3.428-8.963-.5-6.209-11.208-2.712-15.338c2.492-2.932 8.826-3.139 11.868 1.418 1.707 3.346 1.942 6.705 3.855 5.314 5.108-3.676 2.369-12.033 8.536-16.164.013 0 .013-.013.027-.013a43.222 43.222 0 0 1 6.279-2.74c11-3.8 20.529-6.994 22.827-14.512 4.336 2.58 8.205 10.002 7.668 32.872z" fill="#ffa8a7" transform="translate(41.988 -23.929)"/><circle cx="262.543" cy="102.844" fill="#b16668" r="2.544"/><path d="m210.043 102.1a2.683 2.683 0 1 1 -2.817-2.656 2.726 2.726 0 0 1 2.817 2.656z" fill="#263238" transform="translate(50.799 -16.969)"/><path d="m225.074 102.235a2.476 2.476 0 0 1 -2.308 2.644 2.338 2.338 0 0 1 -2.562-2.413 2.44 2.44 0 1 1 4.87-.231z" fill="#263238" transform="translate(56.116 -16.84)"/><path d="m208.336 110.306a8.743 8.743 0 0 1 -8.733-8.733c0-5.937 6.119-5.937 8.733-5.937s8.733 0 8.733 5.937a8.743 8.743 0 0 1 -8.733 8.733zm0-13.293c-5.293 0-7.355 1.278-7.355 4.561a7.355 7.355 0 1 0 14.711 0c-.001-3.282-2.063-4.56-7.356-4.56z" fill="#455a64" transform="translate(49.057 -18.273)"/><path d="m224.847 110.306a8.743 8.743 0 0 1 -8.733-8.733c0-5.937 6.119-5.937 8.733-5.937s8.733 0 8.733 5.937a8.743 8.743 0 0 1 -8.733 8.733zm0-13.293c-5.293 0-7.355 1.278-7.355 4.561a7.355 7.355 0 1 0 14.711 0c-.003-3.282-2.063-4.56-7.356-4.56z" fill="#455a64" transform="translate(54.716 -18.273)"/><path d="m213.621 97.962.43 16.309 8.584-2.66z" fill="#f28f8f" transform="translate(53.861 -17.476)"/><path d="m212.82 124.753c-6.234-.818-19.06-4.5-21.058-9.572 0 0 .666 3.186 4.5 6.471s16.561 6.983 16.561 6.983z" fill="#f28f8f" transform="translate(46.37 -11.575)"/><path d="m209.235 92.5-5.688 3.467a3.494 3.494 0 0 1 1.157-4.7 3.25 3.25 0 0 1 4.531 1.233z" fill="#263238" transform="translate(50.25 -19.931)"/><path d="m226.538 96.1-6.338-2.215a3.221 3.221 0 0 1 4.164-2.128 3.526 3.526 0 0 1 2.174 4.343z" fill="#263238" transform="translate(56.117 -19.666)"/><path d="m212.272 101.223a.693.693 0 0 1 -.687-.7c0-1.117 2.21-1.84 4.193-1.84s3.264.722 3.264 1.84a.689.689 0 1 1 -1.378 0 2.777 2.777 0 0 0 -1.888-.462 7.808 7.808 0 0 0 -2.818.474.681.681 0 0 1 -.686.688z" fill="#455a64" transform="translate(53.164 -17.227)"/><path d="m204.712 100.918a.779.779 0 0 1 -.078 0l-15.349-1.4a7.56 7.56 0 0 0 -2.515-1.633l18.016 1.662a.688.688 0 0 1 -.075 1.372z" fill="#455a64" transform="translate(44.659 -17.503)"/><path d="m161.923 129.02c5.019-6.705 8.442-11.773 13.023-17.521 2.6-3.264 4.264-5.594 6.767-8.942 1.723-2.305 2.732-4.25 4.642-4.964a16.074 16.074 0 0 0 5.6-3.846 35.324 35.324 0 0 0 2.649-3.38 50.435 50.435 0 0 1 10.139-10.213c4.04-3.044 8.529-5.365 12.674-8.266 2.473-1.731 5.125-4.606 2.115-7.288a7.036 7.036 0 0 0 -3.216-1.536c-7.306-1.6-13.681.922-20.827 2.75a59.311 59.311 0 0 0 -9.1 3.073 15.788 15.788 0 0 0 -4.029 2.312c-1.842 1.576-2.945 3.82-4.141 5.927-3.213 5.661-9.869 10.656-14.554 15.063-5.5 5.169-10.407 9.909-16.676 15.613-5.642 5.133-11.162 9.866-16.337 15.472-4.281 4.638-2.723 8.266-2.113 9.518 3.488 7.175 7.394 9.748 12.06 14.192 8.082 7.7 35.919 29.846 45.154 37.156a15.2 15.2 0 0 1 4.526 5.908l1.763 4.1c10.527 1.938 17.551-13.868 8.832-32.9a19.836 19.836 0 0 0 -6.4-7.715c-10.985-8.018-32.551-24.513-32.551-24.513z" fill="#ffa8a7" transform="translate(24.435 -29.61)"/><path d="m156.487 112.056a27.794 27.794 0 0 1 -12.866 8.855s6.715 1.713 15.906-6.535z" fill="#f28f8f" transform="translate(29.872 -12.646)"/><path d="m265.04 185.359h.035l-1.721-1.484v.021a1.948 1.948 0 0 0 -1.77-.2l-18.644 5.071a6.863 6.863 0 0 0 -4.189 3.914l-13.418 38.719a1.77 1.77 0 0 0 .247 1.978l-.015.005 1.775 1.529v-.023a1.935 1.935 0 0 0 1.787.211l18.644-5.07a6.865 6.865 0 0 0 4.189-3.915c2.636-7.609 10.783-31.1 13.418-38.71.329-.957.165-1.674-.338-2.046z" fill="#455a64" transform="translate(57.816 11.869)"/><path d="m226.619 232.506 13.416-38.706a6.863 6.863 0 0 1 4.189-3.914l18.644-5.07c1.728-.47 2.653.521 2.068 2.213-2.634 7.608-10.782 31.1-13.416 38.71a6.869 6.869 0 0 1 -4.189 3.915l-18.644 5.07c-1.728.465-2.654-.524-2.068-2.218z" fill="#4dba72" transform="translate(58.256 12.248)"/><path d="m242.636 189.7a6.732 6.732 0 0 0 -2.163 2.844l-13.42 38.7a1.852 1.852 0 0 0 .187 1.942l-1.669-1.431.017-.017a1.752 1.752 0 0 1 -.255-1.975l13.42-38.714a6.582 6.582 0 0 1 1.993-2.691z" fill="#37474f" transform="translate(57.817 13.502)"/><path d="m257.334 199.8c-1.315 3.944-6 6.574-13.7 8.4s-11.966 10-10.723 12.49 13.688 4.8 18.665 4.089 9.984-7.906 11.491-10.132 3.263-17.776 1.664-19.908-4.961-1.806-4.961-1.806z" fill="#f28f8f" transform="translate(60.4 15.065)"/></svg>