<svg width="512" height="512" viewBox="0 0 512 512" fill="none" xmlns="http://www.w3.org/2000/svg">
<rect width="512" height="512" rx="256" fill="#0F79F3"/>
<path d="M255.742 421.445L255.639 421.376L255.413 420.711L255.296 420.3L255.07 419.079L254.96 418.414L254.761 416.789L254.521 414.087L254.356 411.625L253.883 406.755L253.616 404.335L252.944 399.534L252.587 397.148L251.723 392.423L251.263 390.07L250.201 385.427L249.652 383.116L248.397 378.549L247.752 376.279L246.312 371.794L245.565 369.565L243.932 365.169L243.096 362.982L241.278 358.668L240.346 356.528L238.336 352.304L237.315 350.205L235.12 346.084L234.002 344.033L231.629 340.001L230.416 337.998L227.858 334.062L226.555 332.108L223.811 328.281L222.419 326.374L219.491 322.651L218.01 320.799L214.903 317.178L210.048 311.87L208.251 309.984L204.555 306.363L202.696 304.587L198.883 301.172L196.963 299.498L193.033 296.296L191.051 294.718L187.005 291.728L184.962 290.254L180.799 287.47L178.707 286.105L174.428 283.533L172.275 282.271L167.892 279.912L165.684 278.76L161.185 276.607L158.922 275.558L154.321 273.624L152.009 272.684L147.305 270.963L144.932 270.126L140.125 268.617L137.711 267.897L132.801 266.601L130.332 265.984L125.319 264.914L122.802 264.4L117.7 263.549L115.135 263.145L109.936 262.507L102.029 261.801L101.275 261.753L99.9994 261.657L99.3959 261.609L98.3946 261.513L97.9215 261.465L97.1602 261.362L96.8105 261.307L96.2618 261.197L95.7544 261.081L95.2537 260.765L95 260.141V259.887L95.2606 259.51L95.4595 259.339L96.3099 259.085L96.5705 259.023L97.2562 258.92L97.6266 258.865L98.5455 258.769L99.0393 258.721L100.233 258.632L102.372 258.488L105.115 258.31L110.519 257.775L113.215 257.473L118.516 256.692L121.156 256.273L126.368 255.238L128.96 254.689L134.09 253.407L136.641 252.735L141.695 251.198L144.212 250.403L149.191 248.613L151.673 247.68L156.597 245.637L163.922 242.269L167.145 240.692L173.385 237.256L176.465 235.487L182.417 231.681L185.359 229.733L191.01 225.57L193.801 223.451L199.144 218.953L201.777 216.662L206.797 211.855L209.266 209.406L213.957 204.297L216.254 201.705L220.595 196.308L222.721 193.579L226.705 187.921L228.646 185.054L232.26 179.15L234.023 176.166L237.253 170.035L238.816 166.936L241.656 160.592L243.02 157.39L245.448 150.847L246.614 147.555L248.63 140.835L249.583 137.454L251.161 130.575L251.901 127.119L253.04 120.096L254.247 109.426L254.336 108.308L254.494 106.415L254.569 105.517L254.72 104.022L254.788 103.322L254.926 102.19L254.994 101.669L255.131 100.846L255.207 100.476L255.351 99.9205L255.426 99.6736L255.598 99.3445L256.215 98.9673H256.448L256.812 99.2485L256.976 99.4542L257.223 100.325L257.285 100.593L257.388 101.278L257.436 101.656L257.532 102.568L257.58 103.061L257.676 104.241L257.82 106.339L258.053 109.878L258.848 116.928L259.301 120.446L260.535 127.414L261.201 130.884L262.86 137.735L263.738 141.143L265.809 147.83L266.893 151.149L269.355 157.636L270.637 160.846L273.483 167.087L274.951 170.173L278.167 176.125L283.393 184.691L285.196 187.42L288.996 192.68L290.936 195.279L294.989 200.272L297.047 202.727L301.347 207.438L303.527 209.763L308.054 214.186L310.351 216.367L315.097 220.503L317.497 222.532L322.448 226.373L324.951 228.252L330.102 231.784L332.701 233.512L338.036 236.735L340.731 238.312L346.238 241.213L349.016 242.626L354.687 245.205L357.54 246.46L363.362 248.709L366.291 249.792L372.25 251.699L375.247 252.618L381.337 254.182L384.395 254.922L390.602 256.143L393.722 256.705L400.031 257.569L409.605 258.447L410.442 258.502L411.861 258.598L412.526 258.646L413.63 258.742L414.152 258.79L414.988 258.893L415.372 258.941L415.969 259.057L416.243 259.112L416.641 259.249L416.819 259.325L417.053 259.49L417.32 260.127V260.381L417.073 260.765L416.888 260.937L416.072 261.197L415.818 261.252L415.173 261.362L414.817 261.41L413.939 261.513L413.466 261.561L412.327 261.65L410.291 261.801L405.819 262.102L397.082 263.179L392.748 263.796L384.279 265.49L380.082 266.416L371.887 268.741L367.82 269.982L359.899 272.924L355.969 274.474L348.323 278.047L344.531 279.905L337.151 284.096L333.496 286.269L326.385 291.084L316.029 299.011L313.869 300.794L309.713 304.511L307.663 306.39L303.733 310.293L301.792 312.268L298.082 316.348L296.258 318.412L292.774 322.664L291.067 324.811L287.816 329.227L286.225 331.456L283.214 336.03L281.733 338.334L278.969 343.06L277.611 345.439L275.088 350.301L273.853 352.75L271.577 357.742L270.466 360.259L268.442 365.382L267.462 367.96L265.692 373.2L264.835 375.833L263.326 381.189L262.606 383.878L261.358 389.33L260.768 392.073L259.788 397.621L259.328 400.412L258.622 406.049L257.868 414.601L257.813 415.513L257.703 417.029L257.655 417.735L257.552 418.88L257.497 419.415L257.388 420.231L257.326 420.602L257.189 421.123L257.12 421.356L256.949 421.637L256.86 421.747L256.64 421.822L256.407 421.843L255.742 421.445Z" fill="white"/>
</svg>
