<svg width="24" height="25" viewBox="0 0 24 25" fill="none" xmlns="http://www.w3.org/2000/svg">
<g clip-path="url(#clip0_7105_3274)">
<path d="M22.6234 6.98861C22.4164 9.17883 21.8474 11.0479 21.309 12.3446C20.8903 13.353 20.0104 14.0638 18.9387 14.2736C17.8408 14.4885 16.1768 14.7042 13.9199 14.7042C12.3317 14.7042 10.987 14.5974 9.91169 14.4592C8.01899 14.216 6.68428 12.6679 6.37985 10.7841L5.48975 5.27637H20.9907C21.9374 5.27637 22.7126 6.04612 22.6234 6.98861Z" stroke="black" stroke-width="1.71415" stroke-linecap="round" stroke-linejoin="round"/>
<path d="M20.1334 18.9887H10.623C8.94144 18.9887 7.5081 17.769 7.23893 16.1091L5.60161 6.01234C5.33244 4.35244 3.89909 3.13281 2.21753 3.13281H1.27783" stroke="black" stroke-width="1.71415" stroke-linecap="round" stroke-linejoin="round"/>
<path d="M8.73997 22.8255C9.79935 22.8255 10.6582 21.9668 10.6582 20.9074C10.6582 19.848 9.79935 18.9893 8.73997 18.9893C7.68057 18.9893 6.82178 19.848 6.82178 20.9074C6.82178 21.9668 7.68057 22.8255 8.73997 22.8255Z" stroke="black" stroke-width="1.71415" stroke-linecap="round" stroke-linejoin="round"/>
<path d="M20.133 22.8255C21.1924 22.8255 22.0511 21.9668 22.0511 20.9074C22.0511 19.848 21.1924 18.9893 20.133 18.9893C19.0736 18.9893 18.2148 19.848 18.2148 20.9074C18.2148 21.9668 19.0736 22.8255 20.133 22.8255Z" stroke="black" stroke-width="1.71415" stroke-linecap="round" stroke-linejoin="round"/>
</g>
<defs>
<clipPath id="clip0_7105_3274">
<rect width="23.998" height="23.998" fill="white" transform="translate(-0.0078125 0.980469)"/>
</clipPath>
</defs>
</svg>
